<?xml version="1.0" encoding="UTF-8" standalone="no"?>
<!-- Created with Inkscape (http://www.inkscape.org/) -->

<svg
   xmlns:dc="http://purl.org/dc/elements/1.1/"
   xmlns:cc="http://creativecommons.org/ns#"
   xmlns:rdf="http://www.w3.org/1999/02/22-rdf-syntax-ns#"
   xmlns:svg="http://www.w3.org/2000/svg"
   xmlns="http://www.w3.org/2000/svg"
   xmlns:sodipodi="http://sodipodi.sourceforge.net/DTD/sodipodi-0.dtd"
   xmlns:inkscape="http://www.inkscape.org/namespaces/inkscape"
   width="602.84778"
   height="360.41119"
   id="svg2"
   version="1.1"
   inkscape:version="0.48.4 r9939"
   sodipodi:docname="New document 1">
  <defs
     id="defs4" />
  <sodipodi:namedview
     id="base"
     pagecolor="#ffffff"
     bordercolor="#666666"
     borderopacity="1.0"
     inkscape:pageopacity="0.0"
     inkscape:pageshadow="2"
     inkscape:zoom="1.0831922"
     inkscape:cx="263.5728"
     inkscape:cy="180.20558"
     inkscape:document-units="px"
     inkscape:current-layer="layer1"
     showgrid="false"
     fit-margin-top="0"
     fit-margin-left="0"
     fit-margin-right="0"
     fit-margin-bottom="0"
     inkscape:window-width="916"
     inkscape:window-height="616"
     inkscape:window-x="2094"
     inkscape:window-y="319"
     inkscape:window-maximized="0" />
  <metadata
     id="metadata7">
    <rdf:RDF>
      <cc:Work
         rdf:about="">
        <dc:format>image/svg+xml</dc:format>
        <dc:type
           rdf:resource="http://purl.org/dc/dcmitype/StillImage" />
        <dc:title></dc:title>
      </cc:Work>
    </rdf:RDF>
  </metadata>
  <g
     inkscape:label="Layer 1"
     inkscape:groupmode="layer"
     id="layer1"
     transform="translate(-507.08083,-746.79387)">
    <path
       inkscape:connector-curvature="0"
       id="path3087"
       d="m 780.76326,1106.3247 c -10.13002,-2.6246 -19.54352,-10.7271 -23.557,-20.2763 -1.24282,-2.957 -2.62826,-5.3764 -3.07875,-5.3764 -0.45048,0 -3.13739,0.691 -5.9709,1.5355 -11.8342,3.5272 -26.2993,-3.0067 -34.50225,-15.5846 -3.79213,-5.8146 -4.58354,-5.9558 -13.73872,-2.4509 -7.27519,2.7852 -12.0675,3.1315 -14.50944,1.0484 -0.89491,-0.7634 -3.57843,-1.9148 -5.96337,-2.5588 -10.35435,-2.7959 -19.45988,-18.0866 -19.49624,-32.7396 -0.0142,-5.7303 -1.99526,-5.6377 -7.15515,0.3342 -7.98251,9.2388 -18.43661,12.6306 -26.08502,8.4631 -12.34577,-6.727 -17.14142,-22.5886 -14.28024,-47.23177 1.39241,-11.99283 0.8636,-14.29174 -3.79162,-16.48337 -5.64742,-2.65875 -19.02198,-6.12089 -26.47087,-6.85226 -8.70269,-0.85448 -8.159,-1.27988 -19.76771,15.46679 -5.06891,7.31236 -10.45169,13.91241 -13.0491,16 -4.05077,3.25571 -4.89958,3.53981 -10.13248,3.39131 -3.14125,-0.089 -11.48504,-0.9529 -18.54177,-1.9195 -13.20829,-1.80936 -15.33227,-2.83809 -12.48247,-6.04575 1.55327,-1.74833 0.74168,-1.7324 20.05801,-0.3935 10.93051,0.75765 15.86185,0.75443 17.13281,-0.0112 5.39974,-3.25275 25.01139,-33.82886 34.29462,-53.46802 8.95242,-18.93933 20.81747,-49.40355 23.8862,-61.32925 1.45653,-5.66034 2.67637,-8.17075 3.9703,-8.17075 1.92961,0 1.32622,4.18959 -2.33821,16.23507 -6.0103,19.75678 -11.18413,33.42249 -19.54279,51.6187 -7.36974,16.04338 -8.04165,18.6141 -5.62865,21.53515 0.40387,0.4889 5.45633,1.75796 11.2277,2.82013 22.63965,4.16664 46.99087,16.28636 67.18662,33.4391 12.40123,10.53262 13.13225,12.35682 8.95742,22.35182 -1.91373,4.5817 -2.22828,6.512 -1.88396,11.5612 1.11856,16.4032 11.64635,27.8779 25.54742,27.8453 9.90907,-0.023 17.74234,-6.8466 17.74234,-15.455 0,-2.0641 0.99558,-6.16 2.21241,-9.1022 2.74066,-6.6265 2.7906,-9.626 0.23079,-13.8594 -3.09819,-5.1238 -6.38864,-7.3004 -12.83023,-8.487 -6.28949,-1.1585 -7.4599,-2.2719 -5.13678,-4.8868 3.59033,-4.0412 16.29698,0.3263 22.58347,7.7624 3.58949,4.2459 4.38009,4.3569 9.76223,1.3715 3.38741,-1.8789 5.52146,-2.25 12.9407,-2.25 7.73617,0 9.51585,0.3374 13.77075,2.6101 6.52938,3.4877 12.86259,9.995 16.19394,16.639 2.57991,5.1454 2.87804,5.4061 5.48314,4.7949 11.33706,-2.6599 21.32194,-0.7967 29.77362,5.5558 6.33904,4.7647 10.11045,10.8061 12.58569,20.1612 3.07327,11.6153 11.8019,19.7063 21.2842,19.7293 3.94433,0.01 13.53872,-3.1632 15.73893,-5.2047 3.17795,-2.9487 -0.0393,-6.9014 -11.66294,-14.3292 -6.43873,-4.1145 -7.87518,-6.6398 -4.95587,-8.7125 1.02055,-0.7246 2.8973,0.077 7.3265,3.1281 14.75693,10.1665 28.59821,16.128 37.4452,16.128 7.40244,0 21.92832,-10.0473 24.45594,-16.9158 2.11806,-5.7556 1.20004,-7.1377 -8.85339,-13.3295 -11.94475,-7.3567 -30.56108,-16.2519 -47.68839,-22.7865 -8.04379,-3.0689 -13.69526,-5.7651 -14.00818,-6.683 -0.70912,-2.08 1.06432,-4.2852 3.44618,-4.2852 5.29306,0 29.2606,10.9029 58.49133,26.6079 26.46492,14.219 23.5496,14.3102 49.95566,-1.5639 9.03664,-5.4324 13.77075,-12.1375 13.77075,-19.5041 0,-6.7819 -2.61478,-8.0921 -17.76871,-8.9034 -11.71727,-0.6272 -23.40407,-5.5976 -58.68264,-24.95735 -14.44945,-7.9294 -18.96987,-11.46358 -18.06341,-14.12242 0.9722,-2.85164 5.62242,-1.715 13.54542,3.31084 11.96974,7.59284 26.81225,15.76689 36.59663,20.15448 4.91666,2.20477 9.93768,4.74491 11.15782,5.64476 1.90899,1.40789 13.62852,2.86579 28.77271,3.57919 3.01724,0.1422 25.70086,-3.41742 30.56518,-4.79636 7.57627,-2.14773 13.82666,-6.28186 15.77516,-10.43399 2.2031,-4.6946 2.0942,-11.32399 -0.2635,-16.04583 -3.08972,-6.18767 -5.2547,-6.8519 -23.86595,-7.32217 -18.41334,-0.46527 -24.94134,-1.88789 -39.6118,-8.63243 -18.96386,-8.71837 -34.33496,-21.23033 -60.4278,-49.18773 -8.97225,-9.6134 -13.05975,-13.12748 -23.17044,-19.91992 -14.13562,-9.49644 -27.1369,-16.62395 -42.92738,-23.53351 -10.93115,-4.78322 -11.25882,-4.85871 -20.87823,-4.80993 -7.98063,0.0405 -10.70724,0.46394 -14.86845,2.30918 -7.79359,3.45599 -15.60944,9.83039 -19.68573,16.05517 -10.9944,16.78921 -29.40199,30.57474 -52.06827,38.99417 -12.91054,4.79565 -18.86021,5.64189 -25.79964,3.66959 -16.67537,-4.73942 -25.16893,-22.90122 -18.67931,-39.94205 2.20705,-5.79537 5.62391,-10.07701 11.82324,-14.81554 7.1676,-5.47866 11.30228,-10.46716 15.82481,-19.09272 7.05666,-13.45873 18.23395,-23.63405 31.04587,-28.26281 5.79124,-2.09229 36.1579,-19.01469 50.64081,-28.22057 5.61936,-3.57187 15.30129,-10.30935 21.51539,-14.97219 11.56832,-8.68042 21.1771,-13.28631 27.71784,-13.28631 3.32429,0 5.27343,-1.92097 4.43739,-4.37325 -0.48493,-1.42239 -2.63538,-1.62541 -17.11771,-1.61604 -27.49903,0.0178 -54.14975,3.86615 -73.70944,10.6437 -22.5856,7.82603 -44.83301,18.31195 -60.57136,28.54921 -4.64207,3.01951 -11.06134,6.46664 -14.26503,7.66029 -7.60905,2.83501 -21.54678,5.8324 -31.14922,6.6988 -7.07677,0.63852 -8.28616,0.4555 -15.99183,-2.42011 -4.58485,-1.71097 -12.73385,-4.40872 -18.10888,-5.99498 -12.66976,-3.73907 -14.85131,-4.82758 -25.63122,-12.78898 -4.95977,-3.663 -11.61644,-8.06811 -14.79259,-9.78914 -7.77053,-4.21053 -7.99757,-4.40107 -7.38504,-6.19774 0.38872,-1.14021 1.25032,-1.40278 3.17863,-0.96868 3.3944,0.76413 24.31962,12.33222 31.4237,17.37197 3.33846,2.36836 10.812,5.8737 19.28616,9.04585 l 13.83554,5.1791 11.80908,-0.0131 c 19.11795,-0.0213 25.20846,-1.851 46.01383,-13.82363 27.94003,-16.07833 45.5778,-23.75173 70.1864,-30.5349 20.63043,-5.68663 34.65038,-7.5973 60.85782,-8.29384 23.65073,-0.62858 32.74869,0.0462 43.63353,3.23644 6.22643,1.82488 23.85278,10.565 30.10661,14.92851 3.01727,2.10527 9.03677,4.44685 18.76603,7.3 19.81515,5.81088 35.10147,11.39012 49.16112,17.94294 l 11.95572,5.57224 5.36877,-1.2461 c 9.62436,-2.23383 33.21415,-11.70278 63.52063,-25.49722 21.6012,-9.8321 29.9054,-13.19431 30.3933,-12.30572 1.2771,2.32599 -1.7068,5.24603 -8.2425,8.06604 -3.6093,1.5574 -16.2089,7.28359 -27.9989,12.72487 -11.7901,5.44129 -24.78343,11.23391 -28.87419,12.8725 -8.77349,3.51426 -31.24575,11.07097 -32.92312,11.07097 -0.64229,0 -5.63533,-2.24384 -11.09566,-4.98631 -28.47654,-14.30244 -67.41259,-25.25113 -108.66203,-30.55538 -13.64968,-1.7552 -18.99116,-1.46121 -25.66772,1.41274 -2.26103,0.97328 -12.70659,7.60798 -23.21234,14.74378 -22.55036,15.31685 -37.93606,24.32806 -47.60038,27.87897 -3.85464,1.41629 -9.41395,4.3286 -12.35403,6.4718 -2.94007,2.1432 -8.41287,5.46113 -12.16177,7.37318 -8.68944,4.43187 -13.33883,9.30897 -22.00345,23.08114 -7.73874,12.3005 -10.40244,15.39905 -18.41805,21.42479 -8.35699,6.28237 -9.56222,8.74398 -9.92375,20.26863 l -0.30157,9.61334 2.89773,3.71476 c 1.59374,2.04312 4.92781,5.02539 7.40904,6.62727 5.73919,3.70522 11.02673,3.81927 23.16848,0.49972 19.2794,-5.27098 35.39224,-15.50691 46.77233,-29.71284 12.96494,-16.18432 16.19628,-19.43931 23.02405,-23.19253 3.63498,-1.99815 8.99188,-4.31476 11.90422,-5.14803 6.91724,-1.97913 19.28235,-1.94499 25.41672,0.0702 2.65404,0.87187 14.42064,6.90905 26.14798,13.41597 26.06511,14.4622 42.94541,26.64532 57.30408,41.35837 31.05206,31.81845 53.29713,45.30001 80.41364,48.73446 7.43483,0.94166 10.77308,0.93367 15.60021,-0.0373 3.37772,-0.67943 7.71268,-0.93651 9.63326,-0.57129 5.27162,1.00248 11.11162,5.6718 13.99172,11.18699 2.6114,5.0007 2.7007,6.10763 1.8371,22.7745 -0.1797,3.46924 0.1528,4.21953 2.748,6.19971 1.6239,1.23905 4.7803,2.56132 7.0142,2.93839 3.7243,0.62863 6.246,-0.24612 30.3638,-10.53303 57.1593,-24.38007 59.1743,-25.04432 59.1743,-19.50745 0,1.4847 -4.4898,3.6381 -23.9878,11.50503 -13.1932,5.32315 -29.9846,12.4676 -37.3142,15.87655 -21.8662,10.16982 -22.3827,10.34472 -29.0088,9.82152 -4.1644,-0.3287 -7.1489,-1.2463 -10.1068,-3.1071 -5.2774,-3.31997 -6.8002,-3.29922 -19.78472,0.2696 -5.82345,1.6006 -12.84938,3.2282 -15.61315,3.6169 -2.76378,0.3887 -5.31599,1.2166 -5.67159,1.8398 -0.35558,0.6232 -0.68204,4.7331 -0.72546,9.1331 -0.12875,13.0483 -2.31157,16.2424 -19.80502,28.9799 -8.48656,6.1793 -16.5765,9.4687 -25.1088,10.2093 l -6.98128,0.6059 -3.68674,5.6025 c -11.15939,16.9581 -18.8451,20.8568 -39.18964,19.8795 -9.9284,-0.4769 -10.02904,-0.4589 -13.8499,2.4759 -6.6639,5.1184 -12.87389,7.0102 -21.50954,6.5529 -6.58651,-0.3489 -8.43557,-0.8857 -13.98961,-4.0616 l -6.39994,-3.6596 -2.96284,5.2133 c -5.91323,10.4046 -15.66074,17.7946 -25.26068,19.1512 -1.82734,0.2582 -5.52131,-0.1002 -8.20883,-0.7965 z m 16.54996,-9.461 c 8.04746,-4.6254 13.91068,-15.8502 13.91068,-26.6311 0,-13.6156 -13.20727,-27.5606 -26.10251,-27.5606 -8.36345,0 -12.83407,4.5683 -16.29357,16.6495 -0.81102,2.8322 -2.70367,7.2381 -4.20589,9.7909 -2.3663,4.021 -2.65142,5.2038 -2.13345,8.8505 1.23249,8.6771 6.91133,15.9587 15.49346,19.8662 5.35854,2.4398 14.17255,1.9996 19.33128,-0.9654 z m -46.484,-24.2059 c 8.92108,-4.72 13.90318,-13.3151 13.90318,-23.9858 0,-10.8361 -5.40698,-20.4152 -14.56378,-25.8015 -9.03885,-5.3168 -23.6342,-2.3466 -29.14279,5.9307 -5.80328,8.7202 -7.62698,19.8072 -4.68457,28.4793 5.13857,15.1447 21.30418,22.3526 34.48796,15.3773 z m -107.86401,-42.0269 c 6.42983,-5.2426 10.73617,-14.6963 10.74683,-23.5925 0.004,-3.5139 -0.49645,-4.6435 -3.33925,-7.53432 -4.01677,-4.0846 -11.50287,-9.26418 -20.93345,-14.48368 -6.58949,-3.64706 -7.0151,-3.75333 -8.13714,-2.03175 -1.82203,2.79565 -3.12262,13.23119 -3.12262,25.05515 0,11.8053 1.137,15.7925 5.91558,20.7444 3.84299,3.9824 5.6746,4.8203 10.60929,4.8534 3.66361,0.025 5.24498,-0.5517 8.26076,-3.0107 z m 375.83129,-50.70885 c -0.037,-1.5125 -0.01,-5.86835 0.065,-9.67966 0.2663,-13.9595 -3.8404,-47.77047 -7.526,-61.96165 -5.3041,-20.42334 -17.20435,-51.50955 -24.60024,-64.26161 -7.45787,-12.8589 -8.91352,-17.64907 -4.05647,-13.34876 3.62883,3.21289 14.08048,23.0063 20.59511,39.00316 12.0127,29.4977 18.7728,62.07133 19.7672,95.24852 l 0.5319,17.75 -2.3545,0 c -1.9598,0 -2.3657,-0.46089 -2.4218,-2.75 z"
       style="fill:#040404" />
  </g>
</svg>
